<svg width="16" height="16" viewBox="0 0 16 16" fill="none" xmlns="http://www.w3.org/2000/svg">
<mask id="mask0_30_208" style="mask-type:alpha" maskUnits="userSpaceOnUse" x="0" y="0" width="16" height="16">
<path d="M15.5 0.5H0.5V15.5H15.5V0.5Z" fill="#D9D9D9" stroke="#878C92"/>
</mask>
<g mask="url(#mask0_30_208)">
<path d="M12.7667 2.92188H3.23333C2.55218 2.92188 2 3.47405 2 4.15521V12.9935C2 13.6747 2.55218 14.2269 3.23333 14.2269H12.7667C13.4478 14.2269 14 13.6747 14 12.9935V4.15521C14 3.47405 13.4478 2.92188 12.7667 2.92188Z" stroke="#878C92" stroke-width="1.3" stroke-linecap="round" stroke-linejoin="round"/>
<path d="M3.23333 2.92188H12.7667C13.4467 2.92188 14 3.47521 14 4.15521V6.53353H2V4.15521C2 3.47521 2.55333 2.92188 3.23333 2.92188Z" stroke="#878C92" stroke-width="1.3" stroke-linecap="round" stroke-linejoin="round"/>
<path d="M5 1.5V2.5" stroke="#878C92" stroke-width="1.3" stroke-linecap="round" stroke-linejoin="round"/>
<path d="M11 1.5V2.5" stroke="#878C92" stroke-width="1.3" stroke-linecap="round" stroke-linejoin="round"/>
</g>
</svg>
