<svg width="18" height="18" viewBox="0 0 18 18" fill="none" xmlns="http://www.w3.org/2000/svg">
<path d="M10.5139 15.5199C9.53306 16.5008 8.3571 16.9941 6.98606 16.9999C5.61502 17.006 4.43992 16.5194 3.46077 15.5403C2.48161 14.5611 1.99405 13.385 1.99807 12.012C2.002 10.639 2.49439 9.46209 3.47526 8.48122L8.90537 3.05111C9.60226 2.35422 10.4366 2.00386 11.4084 2.00003C12.3801 1.99611 13.2144 2.34259 13.9113 3.03949C14.6082 3.73638 14.9548 4.57073 14.9509 5.54254C14.9471 6.51435 14.5967 7.3487 13.8999 8.0456L8.76011 13.1853C8.35132 13.5941 7.85993 13.8007 7.28594 13.8052C6.71185 13.8095 6.22016 13.607 5.81086 13.1977C5.40146 12.7883 5.19576 12.2954 5.19375 11.719C5.19173 11.1426 5.39714 10.648 5.80996 10.2352L10.6592 5.38596C10.7875 5.25761 10.9385 5.19339 11.1122 5.19329C11.2858 5.19339 11.4369 5.25766 11.5653 5.38611C11.6937 5.51446 11.7578 5.6654 11.7578 5.83895C11.7576 6.01249 11.6934 6.16344 11.565 6.29178L6.71578 11.141C6.55391 11.3029 6.47202 11.4936 6.47011 11.7131C6.4682 11.9327 6.54818 12.1234 6.71004 12.2853C6.87181 12.447 7.06247 12.5269 7.28202 12.525C7.50156 12.5231 7.69227 12.4412 7.85414 12.2794L12.9996 7.13389C13.4394 6.6816 13.6622 6.14899 13.6679 5.53605C13.6737 4.92311 13.4528 4.39291 13.0054 3.94546C12.5598 3.49992 12.0276 3.27897 11.4087 3.28259C10.7897 3.28631 10.2573 3.51115 9.81134 3.95709L4.38124 9.3872C3.64478 10.1112 3.2762 10.9846 3.27549 12.0074C3.27469 13.0304 3.63914 13.9067 4.36885 14.6364C5.0882 15.3558 5.95562 15.7113 6.97111 15.703C7.98641 15.6948 8.86536 15.3317 9.60795 14.6139L14.7475 9.47432C14.8759 9.34597 15.0269 9.2818 15.2007 9.2818C15.3743 9.2819 15.5254 9.34618 15.6538 9.47462C15.7822 9.60297 15.8463 9.75391 15.8463 9.92746C15.8461 10.101 15.7819 10.2519 15.6535 10.3803L10.5139 15.5199Z" fill="#5A646D"/>
</svg>
