<svg width="16" height="16" viewBox="0 0 16 16" fill="none" xmlns="http://www.w3.org/2000/svg">
<g clip-path="url(#clip0_30_217)">
<mask id="mask0_30_217" style="mask-type:alpha" maskUnits="userSpaceOnUse" x="0" y="0" width="16" height="16">
<path d="M16 0H0V16H16V0Z" fill="#D9D9D9"/>
</mask>
<g mask="url(#mask0_30_217)">
<path d="M6.35714 12.1429C6.00357 12.1429 5.70089 12.017 5.44911 11.7652C5.19732 11.5134 5.07143 11.2107 5.07143 10.8571V2.28571C5.07143 1.93214 5.19732 1.62946 5.44911 1.37768C5.70089 1.12589 6.00357 1 6.35714 1H13.2143C13.5679 1 13.8705 1.12589 14.1223 1.37768C14.3741 1.62946 14.5 1.93214 14.5 2.28571V10.8571C14.5 11.2107 14.3741 11.5134 14.1223 11.7652C13.8705 12.017 13.5679 12.1429 13.2143 12.1429H6.35714ZM6.35714 10.8571H13.2143V2.28571H6.35714V10.8571ZM3.78571 14.7143C3.43214 14.7143 3.12946 14.5884 2.87768 14.3366C2.62589 14.0848 2.5 13.7821 2.5 13.4286V4.21429C2.5 4.03214 2.56125 3.87946 2.68375 3.75625C2.80625 3.63304 2.95804 3.57143 3.13911 3.57143C3.32018 3.57143 3.47321 3.63304 3.59821 3.75625C3.72321 3.87946 3.78571 4.03214 3.78571 4.21429V13.4286H11.2857C11.4679 13.4286 11.6205 13.4898 11.7438 13.6123C11.867 13.7348 11.9286 13.8866 11.9286 14.0677C11.9286 14.2487 11.867 14.4018 11.7438 14.5268C11.6205 14.6518 11.4679 14.7143 11.2857 14.7143H3.78571Z" fill="#878C92"/>
</g>
</g>
<defs>
<clipPath id="clip0_30_217">
<rect width="16" height="16" fill="white"/>
</clipPath>
</defs>
</svg>
