<svg width="16" height="16" viewBox="0 0 16 16" fill="none" xmlns="http://www.w3.org/2000/svg">
<g clip-path="url(#clip0_30_229)">
<mask id="mask0_30_229" style="mask-type:alpha" maskUnits="userSpaceOnUse" x="0" y="0" width="16" height="16">
<path d="M16 0H0V16H16V0Z" fill="#D9D9D9"/>
</mask>
<g mask="url(#mask0_30_229)">
<path d="M8 11.25C8.18417 11.25 8.33854 11.1877 8.46313 11.0631C8.58771 10.9385 8.65 10.7842 8.65 10.6C8.65 10.4158 8.58771 10.2615 8.46313 10.1369C8.33854 10.0123 8.18417 9.95 8 9.95C7.81583 9.95 7.66146 10.0123 7.53688 10.1369C7.41229 10.2615 7.35 10.4158 7.35 10.6C7.35 10.7842 7.41229 10.9385 7.53688 11.0631C7.66146 11.1877 7.81583 11.25 8 11.25ZM8 8.65C8.18417 8.65 8.33854 8.58771 8.46313 8.46313C8.58771 8.33854 8.65 8.18417 8.65 8V5.4C8.65 5.21583 8.58771 5.06146 8.46313 4.93687C8.33854 4.81229 8.18417 4.75 8 4.75C7.81583 4.75 7.66146 4.81229 7.53688 4.93687C7.41229 5.06146 7.35 5.21583 7.35 5.4V8C7.35 8.18417 7.41229 8.33854 7.53688 8.46313C7.66146 8.58771 7.81583 8.65 8 8.65ZM8 14.5C7.10083 14.5 6.25583 14.3294 5.465 13.9881C4.67417 13.6469 3.98625 13.1838 3.40125 12.5988C2.81625 12.0138 2.35313 11.3258 2.01187 10.535C1.67062 9.74417 1.5 8.89917 1.5 8C1.5 7.10083 1.67062 6.25583 2.01187 5.465C2.35313 4.67417 2.81625 3.98625 3.40125 3.40125C3.98625 2.81625 4.67417 2.35313 5.465 2.01187C6.25583 1.67062 7.10083 1.5 8 1.5C8.89917 1.5 9.74417 1.67062 10.535 2.01187C11.3258 2.35313 12.0138 2.81625 12.5988 3.40125C13.1838 3.98625 13.6469 4.67417 13.9881 5.465C14.3294 6.25583 14.5 7.10083 14.5 8C14.5 8.89917 14.3294 9.74417 13.9881 10.535C13.6469 11.3258 13.1838 12.0138 12.5988 12.5988C12.0138 13.1838 11.3258 13.6469 10.535 13.9881C9.74417 14.3294 8.89917 14.5 8 14.5ZM8 13.2C9.45167 13.2 10.6812 12.6962 11.6887 11.6887C12.6962 10.6812 13.2 9.45167 13.2 8C13.2 6.54833 12.6962 5.31875 11.6887 4.31125C10.6812 3.30375 9.45167 2.8 8 2.8C6.54833 2.8 5.31875 3.30375 4.31125 4.31125C3.30375 5.31875 2.8 6.54833 2.8 8C2.8 9.45167 3.30375 10.6812 4.31125 11.6887C5.31875 12.6962 6.54833 13.2 8 13.2Z" fill="#D73A3E"/>
</g>
</g>
<defs>
<clipPath id="clip0_30_229">
<rect width="16" height="16" fill="white"/>
</clipPath>
</defs>
</svg>
