<svg width="36" height="36" viewBox="0 0 36 36" fill="none" xmlns="http://www.w3.org/2000/svg">
<g clip-path="url(#clip0_8220_9709)">
<path d="M17.999 10.4935V9" stroke="white" stroke-width="1.3" stroke-linecap="round" stroke-linejoin="round"/>
<path d="M12.693 12.693L11.6367 11.6367" stroke="white" stroke-width="1.3" stroke-linecap="round" stroke-linejoin="round"/>
<path d="M10.4935 18H9" stroke="white" stroke-width="1.3" stroke-linecap="round" stroke-linejoin="round"/>
<path d="M25.5029 18H27.0008" stroke="white" stroke-width="1.3" stroke-linecap="round" stroke-linejoin="round"/>
<path d="M23.3076 12.693L24.3639 11.6367" stroke="white" stroke-width="1.3" stroke-linecap="round" stroke-linejoin="round"/>
<path d="M23.1952 17.9947C23.1952 15.0553 20.7536 12.683 17.7839 12.8043C15.074 12.9125 12.8532 15.1852 12.8056 17.8995C12.771 19.7783 13.7363 21.432 15.2039 22.367C15.5891 22.6138 15.8316 23.0207 15.8316 23.4796V24.5402C15.8316 25.735 16.8013 26.7047 17.9961 26.7047C19.1909 26.7047 20.1606 25.735 20.1606 24.5402V23.4796C20.1606 23.0207 20.4117 22.6094 20.7969 22.3627C22.2385 21.4406 23.1909 19.8302 23.1909 17.9904L23.1952 17.9947Z" stroke="white" stroke-width="1.3" stroke-linecap="round" stroke-linejoin="round"/>
<path d="M15.8359 24H20.1649" stroke="white" stroke-width="1.3" stroke-linejoin="round"/>
</g>
<defs>
<clipPath id="clip0_8220_9709">
<rect width="20" height="20" fill="white" transform="translate(8.28516 8)"/>
</clipPath>
</defs>
</svg>
