<svg width="36" height="36" viewBox="0 0 36 36" fill="none" xmlns="http://www.w3.org/2000/svg">
<path d="M24.9617 19.2685C25.0061 18.9531 25.0372 18.6355 25.0372 18.3068C25.0372 17.9781 25.0061 17.6604 24.9617 17.3451L25.9723 16.4677C26.301 16.1812 26.3809 15.7037 26.1633 15.3261L24.8062 12.9762C24.5885 12.5986 24.1354 12.4298 23.7223 12.572L22.4585 13.0073C21.9544 12.6097 21.3946 12.2833 20.7905 12.0434L20.5351 10.7352C20.4529 10.3087 20.0776 10 19.6422 10H16.9281C16.4928 10 16.1196 10.3087 16.0352 10.7352L15.7798 12.0434C15.1757 12.2855 14.616 12.612 14.1118 13.0073L12.848 12.572C12.4371 12.4298 11.9818 12.6009 11.7641 12.9762L10.4071 15.3261C10.1894 15.7037 10.2693 16.1812 10.5981 16.4677L11.6086 17.3451C11.5642 17.6604 11.5331 17.9781 11.5331 18.3068C11.5331 18.6355 11.5642 18.9531 11.6086 19.2685L10.5981 20.1458C10.2693 20.4323 10.1894 20.9099 10.4071 21.2874L11.7641 23.6373C11.9818 24.0149 12.4349 24.1837 12.848 24.0416L14.1118 23.6062C14.616 24.0038 15.1757 24.3281 15.7798 24.5702L16.0352 25.8784C16.1174 26.3048 16.4928 26.6135 16.9281 26.6135H19.6422C20.0776 26.6135 20.4507 26.3048 20.5351 25.8784L20.7905 24.5702C21.3946 24.3281 21.9544 24.0016 22.4585 23.6062L23.7223 24.0416C24.1332 24.1837 24.5885 24.0127 24.8062 23.6373L26.1633 21.2874C26.3809 20.9099 26.301 20.4323 25.9723 20.1458L24.9617 19.2685Z" stroke="white" stroke-width="1.3" stroke-linecap="round" stroke-linejoin="round"/>
<path d="M18.2951 21.0764C19.8247 21.0764 21.0647 19.8364 21.0647 18.3068C21.0647 16.7771 19.8247 15.5371 18.2951 15.5371C16.7654 15.5371 15.5254 16.7771 15.5254 18.3068C15.5254 19.8364 16.7654 21.0764 18.2951 21.0764Z" stroke="white" stroke-width="1.3" stroke-linecap="round" stroke-linejoin="round"/>
</svg>
