<svg width="16" height="16" viewBox="0 0 16 16" fill="none" xmlns="http://www.w3.org/2000/svg">
<g clip-path="url(#clip0_31_91)">
<mask id="mask0_31_91" style="mask-type:alpha" maskUnits="userSpaceOnUse" x="0" y="0" width="16" height="16">
<path d="M16 0H0V16H16V0Z" fill="#D9D9D9"/>
</mask>
<g mask="url(#mask0_31_91)">
<path d="M7.9675 11.9C8.195 11.9 8.38729 11.8215 8.54437 11.6644C8.70146 11.5073 8.78 11.315 8.78 11.0875C8.78 10.86 8.70146 10.6677 8.54437 10.5106C8.38729 10.3535 8.195 10.275 7.9675 10.275C7.74 10.275 7.54771 10.3535 7.39062 10.5106C7.23354 10.6677 7.155 10.86 7.155 11.0875C7.155 11.315 7.23354 11.5073 7.39062 11.6644C7.54771 11.8215 7.74 11.9 7.9675 11.9ZM8 14.5C7.10083 14.5 6.25583 14.3294 5.465 13.9881C4.67417 13.6469 3.98625 13.1838 3.40125 12.5988C2.81625 12.0138 2.35313 11.3258 2.01187 10.535C1.67062 9.74417 1.5 8.89917 1.5 8C1.5 7.10083 1.67062 6.25583 2.01187 5.465C2.35313 4.67417 2.81625 3.98625 3.40125 3.40125C3.98625 2.81625 4.67417 2.35313 5.465 2.01187C6.25583 1.67062 7.10083 1.5 8 1.5C8.89917 1.5 9.74417 1.67062 10.535 2.01187C11.3258 2.35313 12.0138 2.81625 12.5988 3.40125C13.1838 3.98625 13.6469 4.67417 13.9881 5.465C14.3294 6.25583 14.5 7.10083 14.5 8C14.5 8.89917 14.3294 9.74417 13.9881 10.535C13.6469 11.3258 13.1838 12.0138 12.5988 12.5988C12.0138 13.1838 11.3258 13.6469 10.535 13.9881C9.74417 14.3294 8.89917 14.5 8 14.5ZM8 13.2C9.45167 13.2 10.6812 12.6962 11.6887 11.6887C12.6962 10.6812 13.2 9.45167 13.2 8C13.2 6.54833 12.6962 5.31875 11.6887 4.31125C10.6812 3.30375 9.45167 2.8 8 2.8C6.54833 2.8 5.31875 3.30375 4.31125 4.31125C3.30375 5.31875 2.8 6.54833 2.8 8C2.8 9.45167 3.30375 10.6812 4.31125 11.6887C5.31875 12.6962 6.54833 13.2 8 13.2ZM8.065 5.205C8.33583 5.205 8.57146 5.29167 8.77187 5.465C8.97229 5.63833 9.0725 5.855 9.0725 6.115C9.0725 6.35333 8.99937 6.56458 8.85312 6.74875C8.70687 6.93292 8.54167 7.10625 8.3575 7.26875C8.10833 7.48542 7.88896 7.72375 7.69938 7.98375C7.50979 8.24375 7.415 8.53625 7.415 8.86125C7.415 9.01292 7.47187 9.14021 7.58562 9.24312C7.69937 9.34604 7.83208 9.3975 7.98375 9.3975C8.14625 9.3975 8.28437 9.34333 8.39812 9.235C8.51187 9.12667 8.585 8.99125 8.6175 8.82875C8.66083 8.60125 8.75833 8.39813 8.91 8.21938C9.06167 8.04063 9.22417 7.87 9.3975 7.7075C9.64667 7.46917 9.86062 7.20917 10.0394 6.9275C10.2181 6.64583 10.3075 6.33167 10.3075 5.985C10.3075 5.4325 10.0827 4.98021 9.63312 4.62812C9.18354 4.27604 8.66083 4.1 8.065 4.1C7.65333 4.1 7.26062 4.18667 6.88688 4.36C6.51312 4.53333 6.22875 4.79875 6.03375 5.15625C5.95792 5.28625 5.93354 5.42438 5.96063 5.57062C5.98771 5.71688 6.06083 5.82792 6.18 5.90375C6.33167 5.99042 6.48875 6.0175 6.65125 5.985C6.81375 5.9525 6.94917 5.86042 7.0575 5.70875C7.17667 5.54625 7.32562 5.42167 7.50437 5.335C7.68313 5.24833 7.87 5.205 8.065 5.205Z" fill="#D95A85"/>
</g>
</g>
<defs>
<clipPath id="clip0_31_91">
<rect width="16" height="16" fill="white"/>
</clipPath>
</defs>
</svg>
