<svg width="16" height="16" viewBox="0 0 16 16" fill="none" xmlns="http://www.w3.org/2000/svg">
<mask id="mask0_3314_9902" style="mask-type:alpha" maskUnits="userSpaceOnUse" x="0" y="0" width="16" height="16">
<rect width="16" height="16" fill="#D9D9D9"/>
</mask>
<g mask="url(#mask0_3314_9902)">
<path d="M3.60039 13.6004C3.27039 13.6004 2.98789 13.4829 2.75289 13.2479C2.51789 13.0129 2.40039 12.7304 2.40039 12.4004V3.60039C2.40039 3.27039 2.51789 2.98789 2.75289 2.75289C2.98789 2.51789 3.27039 2.40039 3.60039 2.40039H8.00039V3.60039H3.60039V12.4004H12.4004V8.00039H13.6004V12.4004C13.6004 12.7304 13.4829 13.0129 13.2479 13.2479C13.0129 13.4829 12.7304 13.6004 12.4004 13.6004H3.60039ZM6.45039 10.4004L5.60039 9.55039L11.5504 3.60039H9.60039V2.40039H13.6004V6.40039H12.4004V4.45039L6.45039 10.4004Z" fill="#3984FA"/>
</g>
</svg>
