<svg width="16" height="16" viewBox="0 0 16 16" fill="none" xmlns="http://www.w3.org/2000/svg">
<path d="M11.3333 1.33301C11.7015 1.33301 11.9999 1.63149 11.9999 1.99967V4.66634H13.9999C14.3681 4.66634 14.6666 4.96482 14.6666 5.33301V11.9997C14.6666 12.3679 14.3681 12.6663 13.9999 12.6663H11.9999V13.9997C11.9999 14.3679 11.7015 14.6663 11.3333 14.6663H4.66658C4.2984 14.6663 3.99992 14.3679 3.99992 13.9997V12.6663H1.99992C1.63173 12.6663 1.33325 12.3679 1.33325 11.9997V5.33301C1.33325 4.96482 1.63173 4.66634 1.99992 4.66634H3.99992V1.99967C3.99992 1.63149 4.2984 1.33301 4.66658 1.33301H11.3333ZM10.6666 11.333H5.33325V13.333H10.6666V11.333ZM13.3333 5.99967H2.66659V11.333H3.99992V10.6663C3.99992 10.2981 4.2984 9.99967 4.66658 9.99967H11.3333C11.7015 9.99967 11.9999 10.2981 11.9999 10.6663V11.333H13.3333V5.99967ZM5.33325 6.66634V7.99967H3.33325V6.66634H5.33325ZM10.6666 2.66634H5.33325V4.66634H10.6666V2.66634Z" fill="#5A646D"/>
</svg>
