<svg width="15" height="15" viewBox="0 0 15 15" fill="none" xmlns="http://www.w3.org/2000/svg">
<g clip-path="url(#clip0_36_6)">
<path d="M15 7.5C15 3.35786 11.6421 0 7.5 0C3.35786 0 0 3.35786 0 7.5C0 11.6421 3.35786 15 7.5 15C11.6421 15 15 11.6421 15 7.5Z" fill="#A3A9B5"/>
<path d="M13.8466 7.50045C13.8466 3.99557 11.0053 1.1543 7.50045 1.1543C3.99557 1.1543 1.1543 3.99557 1.1543 7.50045C1.1543 11.0053 3.99557 13.8466 7.50045 13.8466C11.0053 13.8466 13.8466 11.0053 13.8466 7.50045Z" fill="white"/>
<path d="M11.5388 7.50037C11.5388 5.26999 9.73075 3.46191 7.50037 3.46191C5.26999 3.46191 3.46191 5.26999 3.46191 7.50037C3.46191 9.73075 5.26999 11.5388 7.50037 11.5388C9.73075 11.5388 11.5388 9.73075 11.5388 7.50037Z" fill="#A3A9B5"/>
</g>
<defs>
<clipPath id="clip0_36_6">
<rect width="15" height="15" fill="white"/>
</clipPath>
</defs>
</svg>
