<svg width="16" height="16" viewBox="0 0 16 16" fill="none" xmlns="http://www.w3.org/2000/svg">
<path d="M12.0207 11.0775L14.4044 13.4613C14.6648 13.7216 14.6648 14.1437 14.4044 14.4041C14.1441 14.6644 13.722 14.6644 13.4616 14.4041L11.0779 12.0203C10.0513 12.8417 8.74937 13.333 7.33337 13.333C4.02137 13.333 1.33337 10.645 1.33337 7.33301C1.33337 4.02101 4.02137 1.33301 7.33337 1.33301C10.6454 1.33301 13.3334 4.02101 13.3334 7.33301C13.3334 8.74901 12.842 10.0509 12.0207 11.0775ZM10.6832 10.5829C11.4984 9.74274 12 8.59674 12 7.33301C12 4.75467 9.91171 2.66634 7.33337 2.66634C4.75504 2.66634 2.66671 4.75467 2.66671 7.33301C2.66671 9.91134 4.75504 11.9997 7.33337 11.9997C8.59711 11.9997 9.74311 11.498 10.5832 10.6828L10.6832 10.5829Z" fill="#878C92"/>
</svg>
