<svg width="16" height="16" viewBox="0 0 16 16" fill="none" xmlns="http://www.w3.org/2000/svg">
<g clip-path="url(#clip0_30_200)">
<mask id="mask0_30_200" style="mask-type:alpha" maskUnits="userSpaceOnUse" x="0" y="0" width="16" height="16">
<path d="M16 0H0V16H16V0Z" fill="#D9D9D9"/>
</mask>
<g mask="url(#mask0_30_200)">
<path fill-rule="evenodd" clip-rule="evenodd" d="M5.96105 3.14044C6.90509 1.60075 9.16593 1.62009 10.0769 3.19848L14.1757 10.2981C15.0979 11.896 13.9433 13.895 12.0989 13.895H3.90117C2.0567 13.895 0.902087 11.8961 1.82431 10.2982L5.92319 3.19841C5.93482 3.17827 5.94747 3.15893 5.96105 3.14044ZM8.98802 3.82691C8.54962 3.06729 7.45379 3.06729 7.01538 3.82691C7.0052 3.84456 6.99423 3.86159 6.98253 3.87798L2.91317 10.9266C2.91318 10.9266 2.91315 10.9267 2.91317 10.9266C2.47479 11.6863 3.02434 12.6378 3.90117 12.6378H12.0989C12.9757 12.6378 13.5253 11.6864 13.0869 10.9267L8.98802 3.82691Z" fill="#6B55F4"/>
<path fill-rule="evenodd" clip-rule="evenodd" d="M8.00018 5.71387C8.34734 5.71387 8.62878 5.9953 8.62878 6.34246V8.85162C8.62878 9.19878 8.34734 9.48022 8.00018 9.48022C7.65301 9.48022 7.37158 9.19878 7.37158 8.85162V6.34246C7.37158 5.9953 7.65301 5.71387 8.00018 5.71387Z" fill="#6B55F4"/>
<path fill-rule="evenodd" clip-rule="evenodd" d="M8.04364 9.88281C8.3908 9.88281 8.67223 10.1642 8.67223 10.5114V10.828C8.67223 11.1752 8.3908 11.4566 8.04364 11.4566C7.69647 11.4566 7.41504 11.1752 7.41504 10.828V10.5114C7.41504 10.1642 7.69647 9.88281 8.04364 9.88281Z" fill="#6B55F4"/>
</g>
</g>
<defs>
<clipPath id="clip0_30_200">
<rect width="16" height="16" fill="white"/>
</clipPath>
</defs>
</svg>
